<svg width="16" height="16" viewBox="0 0 16 16" fill="none" xmlns="http://www.w3.org/2000/svg">
    <path
        d="M6.90489 2H9.09511C9.81778 2 10.4009 2 10.8729 2.03822C11.3582 2.07822 11.7849 2.16267 12.1796 2.36356C12.8072 2.683 13.3175 3.19301 13.6373 3.82044C13.8382 4.21511 13.9218 4.64178 13.9618 5.12711C14 5.59911 14 6.18222 14 6.90489V9.09511C14 9.81778 14 10.4009 13.9618 10.8729C13.9218 11.3582 13.8373 11.7849 13.6364 12.1796C13.317 12.8072 12.807 13.3175 12.1796 13.6373C11.7849 13.8382 11.3582 13.9218 10.8729 13.9618C10.4009 14 9.81778 14 9.09511 14H5.88622C4.104 14 3.21067 11.8453 4.47111 10.5858L8.39111 6.66667H7C6.82319 6.66667 6.65362 6.59643 6.5286 6.4714C6.40357 6.34638 6.33333 6.17681 6.33333 6C6.33333 5.82319 6.40357 5.65362 6.5286 5.5286C6.65362 5.40357 6.82319 5.33333 7 5.33333H10C10.1768 5.33333 10.3464 5.40357 10.4714 5.5286C10.5964 5.65362 10.6667 5.82319 10.6667 6V9C10.6667 9.17681 10.5964 9.34638 10.4714 9.4714C10.3464 9.59643 10.1768 9.66667 10 9.66667C9.82319 9.66667 9.65362 9.59643 9.5286 9.4714C9.40357 9.34638 9.33333 9.17681 9.33333 9V7.60978L5.41422 11.5289C5.32111 11.6221 5.25771 11.7409 5.23203 11.8701C5.20636 11.9993 5.21956 12.1333 5.26997 12.255C5.32038 12.3768 5.40574 12.4809 5.51526 12.5541C5.62479 12.6274 5.75356 12.6666 5.88533 12.6667H9.06667C9.82489 12.6667 10.3529 12.6667 10.7644 12.6329C11.1671 12.5991 11.3991 12.5378 11.5751 12.4489C11.9511 12.2569 12.2569 11.9511 12.4489 11.5751C12.5378 11.3991 12.6 11.1671 12.6329 10.7636C12.6658 10.3529 12.6667 9.82489 12.6667 9.06667V6.93333C12.6667 6.176 12.6667 5.64711 12.6329 5.23556C12.5991 4.83289 12.5378 4.60089 12.4489 4.42578C12.2573 4.04926 11.9514 3.74307 11.5751 3.55111C11.3991 3.46222 11.1671 3.4 10.7636 3.36711C10.3529 3.33422 9.82489 3.33333 9.06667 3.33333H6.93333C6.176 3.33333 5.64711 3.33333 5.23556 3.36711C4.83289 3.4 4.60089 3.46222 4.42578 3.55111C4.04912 3.74292 3.74292 4.04912 3.55111 4.42578C3.46222 4.60089 3.4 4.83289 3.36711 5.23644C3.33422 5.64711 3.33333 6.176 3.33333 6.93333V9.33333C3.33333 9.51014 3.2631 9.67971 3.13807 9.80474C3.01305 9.92976 2.84348 10 2.66667 10C2.48986 10 2.32029 9.92976 2.19526 9.80474C2.07024 9.67971 2 9.51014 2 9.33333V6.90489C2 6.18222 2 5.59911 2.03822 5.12711C2.07822 4.64178 2.16267 4.21511 2.36356 3.82044C2.683 3.19282 3.19301 2.68249 3.82044 2.36267C4.21511 2.16178 4.64178 2.07822 5.12711 2.03822C5.59911 2 6.18222 2 6.90489 2Z"
        fill="white" fill-opacity="0.5" />
</svg>
    